<?xml version="1.0" encoding="UTF-8"?>
<svg id="pitch_lines" data-name="pitch lines" xmlns="http://www.w3.org/2000/svg" viewBox="0 0 400 400">
  <defs>
    <style>
      .cls-1 {
        fill: none;
      }

      .cls-2 {
        fill: #ab7813;
      }

      .cls-3 {
        fill: #4a2601;
      }

      .cls-4 {
        fill: #925f00;
      }

      .cls-5 {
        fill: #9f6b1c;
      }

      .cls-6 {
        fill: #e4ca7d;
      }

      .cls-7 {
        fill: #004424;
      }

      .cls-8 {
        fill: #195d46;
      }

      .cls-9 {
        fill: #b58123;
      }
    </style>
  </defs>
  <g>
    <rect width="50" height="50"/>
    <rect x="50" width="50" height="50"/>
    <rect x="100" width="50" height="50"/>
    <rect x="150" width="50" height="50"/>
    <rect x="200" width="50" height="50"/>
    <rect x="250" width="50" height="50"/>
    <rect x="300" width="50" height="50"/>
    <rect x="350" width="50" height="50"/>
    <rect y="50" width="50" height="50"/>
    <rect x="50" y="50" width="50" height="50"/>
    <rect x="100" y="50" width="50" height="50"/>
    <rect x="150" y="50" width="50" height="50"/>
    <rect x="200" y="50" width="50" height="50"/>
    <rect x="250" y="50" width="50" height="50"/>
    <rect x="300" y="50" width="50" height="50"/>
    <rect x="350" y="50" width="50" height="50"/>
    <rect y="100" width="50" height="50"/>
    <rect x="50" y="100" width="50" height="50"/>
    <rect x="300" y="100" width="50" height="50"/>
    <rect x="350" y="100" width="50" height="50"/>
    <rect y="150" width="50" height="50"/>
    <rect x="50" y="150" width="50" height="50"/>
    <rect x="300" y="150" width="50" height="50"/>
    <rect x="350" y="150" width="50" height="50"/>
    <rect y="200" width="50" height="50"/>
    <rect x="50" y="200" width="50" height="50"/>
    <rect x="300" y="200" width="50" height="50"/>
    <rect x="350" y="200" width="50" height="50"/>
    <rect y="250" width="50" height="50"/>
    <rect x="50" y="250" width="50" height="50"/>
    <rect x="300" y="250" width="50" height="50"/>
    <rect x="350" y="250" width="50" height="50"/>
    <rect y="300" width="50" height="50"/>
    <rect x="50" y="300" width="50" height="50"/>
    <rect x="100" y="300" width="50" height="50"/>
    <rect x="150" y="300" width="50" height="50"/>
    <rect x="200" y="300" width="50" height="50"/>
    <rect x="250" y="300" width="50" height="50"/>
    <rect x="300" y="300" width="50" height="50"/>
    <rect x="350" y="300" width="50" height="50"/>
    <rect y="350" width="50" height="50"/>
    <rect x="50" y="350" width="50" height="50"/>
    <rect x="100" y="100" width="50" height="50"/>
    <rect x="150" y="100" width="50" height="50"/>
    <rect x="100" y="150" width="50" height="50"/>
    <rect x="150" y="150" width="50" height="50"/>
    <rect x="100" y="200" width="50" height="50"/>
    <rect x="150" y="200" width="50" height="50"/>
    <rect x="100" y="250" width="50" height="50"/>
    <rect x="150" y="250" width="50" height="50"/>
    <rect x="100" y="350" width="50" height="50"/>
    <rect x="150" y="350" width="50" height="50"/>
    <rect x="200" y="100" width="50" height="50"/>
    <rect x="250" y="100" width="50" height="50"/>
    <rect x="200" y="150" width="50" height="50"/>
    <rect x="250" y="150" width="50" height="50"/>
    <rect x="200" y="200" width="50" height="50"/>
    <rect x="250" y="200" width="50" height="50"/>
    <rect x="200" y="250" width="50" height="50"/>
    <rect x="250" y="250" width="50" height="50"/>
    <rect x="200" y="350" width="50" height="50"/>
    <rect x="250" y="350" width="50" height="50"/>
    <rect x="300" y="350" width="50" height="50"/>
    <rect x="350" y="350" width="50" height="50"/>
  </g>
  <g>
    <rect x="66.67" width="66.67" height="66.67"/>
    <path d="M133.33,0h0c36.82,0,66.67,29.85,66.67,66.67h0s-66.67,0-66.67,0V0Z"/>
    <path d="M266.67,0h0v66.67h-66.67C200,29.85,229.85,0,266.67,0Z"/>
    <path d="M266.67,0h0c36.82,0,66.67,29.85,66.67,66.67h0s-66.67,0-66.67,0V0Z"/>
    <path d="M133.33,66.67h0v66.67h-66.67c0-36.82,29.85-66.67,66.67-66.67Z"/>
    <path d="M266.67,66.67h0c36.82,0,66.67,29.85,66.67,66.67h0s-66.67,0-66.67,0v-66.67Z"/>
    <rect x="66.67" y="133.33" width="66.67" height="66.67"/>
    <rect x="133.33" y="133.33" width="66.67" height="66.67"/>
    <rect x="200" y="133.33" width="66.67" height="66.67"/>
    <rect x="266.67" y="133.33" width="66.67" height="66.67"/>
    <rect x="66.67" y="200" width="66.67" height="66.67"/>
    <rect x="133.33" y="200" width="66.67" height="66.67"/>
    <path d="M200,200h66.67v66.67h0c-36.82,0-66.67-29.85-66.67-66.67h0Z"/>
    <path d="M266.67,200h66.67c0,36.82-29.85,66.67-66.67,66.67h0v-66.67Z"/>
    <path d="M133.33,66.67h66.67c0,36.82-29.85,66.67-66.67,66.67h0v-66.67Z"/>
    <rect x="200" y="66.67" width="66.67" height="66.67"/>
    <path d="M133.33,333.33h0v66.67h-66.67c0-36.82,29.85-66.67,66.67-66.67Z"/>
    <path d="M266.67,333.33h0c36.82,0,66.67,29.85,66.67,66.67h0s-66.67,0-66.67,0v-66.67Z"/>
    <rect x="133.33" y="333.33" width="66.67" height="66.67"/>
    <rect x="200" y="333.33" width="66.67" height="66.67"/>
  </g>
  <g>
    <polygon class="cls-1" points="247.06 180.47 200 227.53 247.06 180.47 247.06 180.47"/>
    <path class="cls-1" d="M152.78,180.47c-2.88-2.88-5.44-5.96-7.68-9.19,2.24,3.23,4.8,6.31,7.68,9.19l47.14,47.14.08-.08-.08.08-47.14-47.14Z"/>
    <polygon class="cls-1" points="200 133.41 200 133.41 200 133.41 200 133.41"/>
    <path class="cls-1" d="M141.14,164.82c-.25-.47-.5-.94-.74-1.42.24.47.49.95.74,1.42Z"/>
    <path class="cls-1" d="M144.27,170.06c-.26-.39-.51-.78-.76-1.17.25.39.5.78.76,1.17Z"/>
    <path class="cls-9" d="M247.06,180.47l-47.06,47.06v39.13h66.67v-133.25h-.08c-.02,17.03-6.53,34.06-19.53,47.06l.08.08-.08-.08h0Z"/>
    <rect class="cls-7" x="200" y="266.66" width="66.67" height="66.67"/>
    <path class="cls-5" d="M200,227.61v-.08l-.08.08-47.14-47.14c-2.88-2.88-5.44-5.96-7.68-9.19-.28-.4-.56-.81-.83-1.22-.26-.39-.51-.78-.76-1.17-.84-1.33-1.63-2.69-2.37-4.07-.25-.47-.5-.94-.74-1.42-1.96-3.87-3.52-7.89-4.67-12-1.36-4.84-2.16-9.8-2.4-14.79v130.05h66.67v-39.05Z"/>
    <rect class="cls-8" x="133.33" y="266.66" width="66.67" height="66.67"/>
    <path class="cls-6" d="M247.14,86.27s-.05-.05-.08-.08h0c-26.03-26.04-68.25-26.04-94.28,0l47.22,47.22,47.14-47.14Z"/>
    <polygon class="cls-2" points="200 133.41 199.84 133.41 152.78 180.47 199.92 227.61 200 227.53 247.06 180.47 247.06 180.47 247.06 180.47 200 133.41 200 133.41"/>
    <path class="cls-4" d="M135.74,151.4c1.15,4.11,2.71,8.13,4.67,12,.24.47.49.95.74,1.42.74,1.38,1.53,2.74,2.37,4.07.25.39.5.78.76,1.17.27.41.55.82.83,1.22,2.24,3.23,4.8,6.31,7.68,9.19l47.06-47.06h.16s-47.22-47.22-47.22-47.22h0c-13.85,13.85-20.33,32.28-19.45,50.42h0c.24,4.99,1.04,9.95,2.4,14.79Z"/>
    <path class="cls-4" d="M145.1,171.28c-.28-.4-.56-.81-.83-1.22.27.41.55.82.83,1.22Z"/>
    <path class="cls-4" d="M143.51,168.89c-.84-1.33-1.63-2.69-2.37-4.07.74,1.38,1.53,2.74,2.37,4.07Z"/>
    <path class="cls-4" d="M140.4,163.4c-1.96-3.87-3.52-7.89-4.67-12,1.15,4.11,2.71,8.13,4.67,12Z"/>
    <path class="cls-4" d="M133.33,136.61h0c.24,4.99,1.04,9.95,2.4,14.79-1.36-4.84-2.16-9.8-2.4-14.79Z"/>
    <path class="cls-3" d="M200,133.41l47.06,47.06c13-13,19.5-30.02,19.53-47.06.02-17.05-6.46-34.11-19.45-47.14l-47.14,47.14h0Z"/>
  </g>
</svg>